<svg xmlns="http://www.w3.org/2000/svg" width="900" height="420" viewBox="0 0 900 420">
<style>text{font-family:Arial,Helvetica,sans-serif;fill:#1f2937} .grid{stroke:#e5e7eb;stroke-width:1} .axis{stroke:#374151;stroke-width:1.5} .legend{font-size:12px} .title{font-size:20px;font-weight:bold} .label{font-size:13px} .tick{font-size:11px}</style>
<text x="450.0" y="28" text-anchor="middle" class="title">Final 1.5B GRPO Reward Dynamics</text>
<rect x="0" y="0" width="900" height="420" fill="white"/>
<line x1="70" y1="360.0" x2="870" y2="360.0" class="grid"/>
<text x="60" y="364.0" text-anchor="end" class="tick">-16.30</text>
<line x1="70" y1="298.0" x2="870" y2="298.0" class="grid"/>
<text x="60" y="302.0" text-anchor="end" class="tick">-9.57</text>
<line x1="70" y1="236.0" x2="870" y2="236.0" class="grid"/>
<text x="60" y="240.0" text-anchor="end" class="tick">-2.83</text>
<line x1="70" y1="174.0" x2="870" y2="174.0" class="grid"/>
<text x="60" y="178.0" text-anchor="end" class="tick">3.91</text>
<line x1="70" y1="112.0" x2="870" y2="112.0" class="grid"/>
<text x="60" y="116.0" text-anchor="end" class="tick">10.65</text>
<line x1="70" y1="50.0" x2="870" y2="50.0" class="grid"/>
<text x="60" y="54.0" text-anchor="end" class="tick">17.38</text>
<line x1="70.0" y1="50" x2="70.0" y2="360" class="grid"/>
<text x="70.0" y="378" text-anchor="middle" class="tick">1</text>
<line x1="117.1" y1="50" x2="117.1" y2="360" class="grid"/>
<text x="117.1" y="378" text-anchor="middle" class="tick">2</text>
<line x1="164.1" y1="50" x2="164.1" y2="360" class="grid"/>
<text x="164.1" y="378" text-anchor="middle" class="tick">3</text>
<line x1="211.2" y1="50" x2="211.2" y2="360" class="grid"/>
<text x="211.2" y="378" text-anchor="middle" class="tick">4</text>
<line x1="258.2" y1="50" x2="258.2" y2="360" class="grid"/>
<text x="258.2" y="378" text-anchor="middle" class="tick">5</text>
<line x1="305.3" y1="50" x2="305.3" y2="360" class="grid"/>
<text x="305.3" y="378" text-anchor="middle" class="tick">6</text>
<line x1="352.4" y1="50" x2="352.4" y2="360" class="grid"/>
<text x="352.4" y="378" text-anchor="middle" class="tick">7</text>
<line x1="399.4" y1="50" x2="399.4" y2="360" class="grid"/>
<text x="399.4" y="378" text-anchor="middle" class="tick">8</text>
<line x1="446.5" y1="50" x2="446.5" y2="360" class="grid"/>
<text x="446.5" y="378" text-anchor="middle" class="tick">9</text>
<line x1="493.5" y1="50" x2="493.5" y2="360" class="grid"/>
<text x="493.5" y="378" text-anchor="middle" class="tick">10</text>
<line x1="540.6" y1="50" x2="540.6" y2="360" class="grid"/>
<text x="540.6" y="378" text-anchor="middle" class="tick">11</text>
<line x1="587.6" y1="50" x2="587.6" y2="360" class="grid"/>
<text x="587.6" y="378" text-anchor="middle" class="tick">12</text>
<line x1="634.7" y1="50" x2="634.7" y2="360" class="grid"/>
<text x="634.7" y="378" text-anchor="middle" class="tick">13</text>
<line x1="681.8" y1="50" x2="681.8" y2="360" class="grid"/>
<text x="681.8" y="378" text-anchor="middle" class="tick">14</text>
<line x1="728.8" y1="50" x2="728.8" y2="360" class="grid"/>
<text x="728.8" y="378" text-anchor="middle" class="tick">15</text>
<line x1="775.9" y1="50" x2="775.9" y2="360" class="grid"/>
<text x="775.9" y="378" text-anchor="middle" class="tick">16</text>
<line x1="822.9" y1="50" x2="822.9" y2="360" class="grid"/>
<text x="822.9" y="378" text-anchor="middle" class="tick">17</text>
<line x1="870.0" y1="50" x2="870.0" y2="360" class="grid"/>
<text x="870.0" y="378" text-anchor="middle" class="tick">18</text>
<line x1="70" y1="360" x2="870" y2="360" class="axis"/>
<line x1="70" y1="50" x2="70" y2="360" class="axis"/>
<text x="450.0" y="402" text-anchor="middle" class="label">Training Step</text>
<text x="20" y="210.0" text-anchor="middle" transform="rotate(-90 20 210.0)" class="label">Reward / Std</text>
<polyline fill="none" stroke="#0f766e" stroke-width="3" points="70.0,292.3 117.1,236.8 164.1,212.4 211.2,279.4 258.2,338.6 305.3,219.3 352.4,246.0 399.4,244.9 446.5,252.7 493.5,258.1 540.6,247.8 587.6,210.7 634.7,247.8 681.8,239.1 728.8,259.7 775.9,306.5 822.9,179.5 870.0,234.0"/>
<circle cx="70.0" cy="292.3" r="3.5" fill="#0f766e"/>
<circle cx="117.1" cy="236.8" r="3.5" fill="#0f766e"/>
<circle cx="164.1" cy="212.4" r="3.5" fill="#0f766e"/>
<circle cx="211.2" cy="279.4" r="3.5" fill="#0f766e"/>
<circle cx="258.2" cy="338.6" r="3.5" fill="#0f766e"/>
<circle cx="305.3" cy="219.3" r="3.5" fill="#0f766e"/>
<circle cx="352.4" cy="246.0" r="3.5" fill="#0f766e"/>
<circle cx="399.4" cy="244.9" r="3.5" fill="#0f766e"/>
<circle cx="446.5" cy="252.7" r="3.5" fill="#0f766e"/>
<circle cx="493.5" cy="258.1" r="3.5" fill="#0f766e"/>
<circle cx="540.6" cy="247.8" r="3.5" fill="#0f766e"/>
<circle cx="587.6" cy="210.7" r="3.5" fill="#0f766e"/>
<circle cx="634.7" cy="247.8" r="3.5" fill="#0f766e"/>
<circle cx="681.8" cy="239.1" r="3.5" fill="#0f766e"/>
<circle cx="728.8" cy="259.7" r="3.5" fill="#0f766e"/>
<circle cx="775.9" cy="306.5" r="3.5" fill="#0f766e"/>
<circle cx="822.9" cy="179.5" r="3.5" fill="#0f766e"/>
<circle cx="870.0" cy="234.0" r="3.5" fill="#0f766e"/>
<line x1="680" y1="55" x2="702" y2="55" stroke="#0f766e" stroke-width="3"/>
<text x="710" y="59" class="legend">Mean Reward</text>
<polyline fill="none" stroke="#dc2626" stroke-width="3" points="70.0,161.0 117.1,164.5 164.1,184.5 211.2,170.2 258.2,132.8 305.3,186.9 352.4,167.7 399.4,210.0 446.5,201.0 493.5,150.5 540.6,204.2 587.6,133.7 634.7,204.2 681.8,189.8 728.8,180.5 775.9,143.6 822.9,71.4 870.0,188.1"/>
<circle cx="70.0" cy="161.0" r="3.5" fill="#dc2626"/>
<circle cx="117.1" cy="164.5" r="3.5" fill="#dc2626"/>
<circle cx="164.1" cy="184.5" r="3.5" fill="#dc2626"/>
<circle cx="211.2" cy="170.2" r="3.5" fill="#dc2626"/>
<circle cx="258.2" cy="132.8" r="3.5" fill="#dc2626"/>
<circle cx="305.3" cy="186.9" r="3.5" fill="#dc2626"/>
<circle cx="352.4" cy="167.7" r="3.5" fill="#dc2626"/>
<circle cx="399.4" cy="210.0" r="3.5" fill="#dc2626"/>
<circle cx="446.5" cy="201.0" r="3.5" fill="#dc2626"/>
<circle cx="493.5" cy="150.5" r="3.5" fill="#dc2626"/>
<circle cx="540.6" cy="204.2" r="3.5" fill="#dc2626"/>
<circle cx="587.6" cy="133.7" r="3.5" fill="#dc2626"/>
<circle cx="634.7" cy="204.2" r="3.5" fill="#dc2626"/>
<circle cx="681.8" cy="189.8" r="3.5" fill="#dc2626"/>
<circle cx="728.8" cy="180.5" r="3.5" fill="#dc2626"/>
<circle cx="775.9" cy="143.6" r="3.5" fill="#dc2626"/>
<circle cx="822.9" cy="71.4" r="3.5" fill="#dc2626"/>
<circle cx="870.0" cy="188.1" r="3.5" fill="#dc2626"/>
<line x1="680" y1="75" x2="702" y2="75" stroke="#dc2626" stroke-width="3"/>
<text x="710" y="79" class="legend">Reward Std</text>
</svg>